<svg width="273" height="215" viewBox="0 0 273 215" fill="none" xmlns="http://www.w3.org/2000/svg">
<path d="M66.6848 93.0894H84.9248L53.4848 9.08935H31.7648L0.324844 93.0894H18.4448L25.6448 73.2894H59.6048L66.6848 93.0894ZM31.5248 56.9694L42.5648 26.4894L53.6048 56.9694H31.5248ZM94.7452 93.0894H111.905V0.689351H94.7452V93.0894ZM174.883 27.0894V36.2094C170.323 29.8494 163.243 25.6494 154.123 25.6494C137.083 25.6494 124.003 39.6894 124.003 59.6094C124.003 79.4094 136.843 93.5694 154.123 93.5694C163.363 93.5694 170.203 89.4894 174.883 83.2494V92.7294C174.883 103.889 169.363 109.289 158.923 109.289C151.843 109.289 145.603 106.649 143.683 99.2094H125.923C128.443 116.489 143.443 124.529 159.403 124.529C179.323 124.529 192.043 111.809 192.043 92.2494V27.0894H174.883ZM157.963 77.2494C148.483 77.2494 141.283 69.9294 141.283 59.6094C141.283 49.2894 148.363 41.9694 157.963 41.9694C167.563 41.9694 174.883 49.2894 174.883 59.6094C174.883 70.0494 167.563 77.2494 157.963 77.2494ZM255.039 27.0894V36.3294C250.479 29.9694 243.519 25.6494 234.159 25.6494C217.239 25.6494 204.159 39.6894 204.159 60.0894C204.159 80.3694 216.999 94.5294 234.279 94.5294C243.519 94.5294 250.359 90.4494 254.919 84.2094V93.0894H272.079L272.199 27.0894H255.039ZM238.119 78.2094C228.639 78.2094 221.439 71.0094 221.439 60.0894C221.439 49.2894 228.519 41.9694 238.119 41.9694C247.719 41.9694 255.039 49.2894 255.039 60.0894C255.039 71.0094 247.719 78.2094 238.119 78.2094ZM47.7525 214.529C67.7925 214.529 83.3925 202.169 88.3125 184.289H69.9525C65.9925 192.929 57.9525 198.209 47.6325 198.209C32.1525 198.209 21.5925 186.809 21.5925 171.089C21.5925 155.369 32.1525 143.969 47.6325 143.969C57.9525 143.969 65.9925 149.249 69.9525 157.889H88.3125C83.3925 140.009 67.7925 127.649 47.7525 127.649C22.6725 127.649 4.3125 146.369 4.3125 171.089C4.3125 195.809 22.6725 214.529 47.7525 214.529ZM132.483 145.649C113.523 145.649 98.1628 160.169 98.1628 180.089C98.1628 199.889 113.283 214.529 132.483 214.529C151.803 214.529 166.923 200.009 166.923 180.089C166.923 160.169 151.563 145.649 132.483 145.649ZM132.483 161.969C142.083 161.969 149.523 169.289 149.523 180.089C149.523 191.009 142.083 198.209 132.483 198.209C122.883 198.209 115.443 191.009 115.443 180.089C115.443 169.289 122.883 161.969 132.483 161.969ZM187.582 116.609C181.582 116.609 176.902 120.809 176.902 126.689C176.902 132.569 181.582 136.889 187.582 136.889C193.822 136.889 198.262 132.569 198.262 126.689C198.262 120.809 193.822 116.609 187.582 116.609ZM178.942 213.089H196.102V147.089H178.942V213.089ZM247.559 145.649C238.439 145.649 231.839 149.369 227.039 156.089V147.089H209.879V213.089H227.039V178.409C227.039 167.609 232.199 161.969 241.919 161.969C251.039 161.969 254.279 166.769 254.279 175.409V213.089H271.439V171.689C271.439 155.489 262.439 145.649 247.559 145.649Z" fill="url(#paint0_linear_12_250)"/>
<defs>
<linearGradient id="paint0_linear_12_250" x1="273.84" y1="227.489" x2="45.0253" y2="-50.8561" gradientUnits="userSpaceOnUse">
<stop stop-color="#F64F59"/>
<stop offset="0.484375" stop-color="#C471ED"/>
<stop offset="1" stop-color="#12C2E9"/>
</linearGradient>
</defs>
</svg>
