<svg width="46" height="47" viewBox="0 0 46 47" fill="none" xmlns="http://www.w3.org/2000/svg">
<g filter="url(#filter0_bi_0_1)">
<rect y="0.542969" width="46" height="46" rx="23" fill="white" fill-opacity="0.03"/>
</g>
<path d="M34.9989 28.5391C34.9823 28.2418 34.5619 21.2098 31.8915 17.0033C31.8369 16.9173 31.7642 16.8441 31.6786 16.789C28.3768 14.6628 26.1283 14.6679 26.0335 14.6685C25.7608 14.672 25.5259 14.8308 25.4124 15.06L24.2781 17.2337C26.4059 17.3729 28.4266 17.8567 30.0715 18.6312C30.4229 18.7967 30.5736 19.2156 30.4082 19.5669C30.2883 19.8214 30.0354 19.9707 29.7716 19.9707C29.6712 19.9707 29.5694 19.9491 29.4725 19.9035C27.6845 19.0617 25.3858 18.598 23 18.598C20.6144 18.598 18.3158 19.0616 16.5277 19.9034C16.1765 20.0688 15.7575 19.9181 15.5921 19.5667C15.4267 19.2154 15.5774 18.7964 15.9287 18.6311C17.5736 17.8567 19.5944 17.3728 21.7221 17.2337L20.589 15.0625C20.476 14.8319 20.2403 14.6721 19.9665 14.6685C19.8712 14.6683 17.623 14.663 14.3216 16.789C14.2359 16.8441 14.1632 16.9173 14.1086 17.0033C11.4382 21.2098 11.0177 28.2418 11.0011 28.5391C10.9907 28.7254 11.0548 28.9083 11.1794 29.0474C11.3032 29.1856 14.245 32.4181 18.3113 32.4181C18.3295 32.4181 18.3482 32.4181 18.3664 32.418C18.5801 32.4164 18.7815 32.3178 18.9137 32.1499L20.7893 29.7697C18.3695 29.4934 16.1728 28.7678 14.5603 27.6862C14.2378 27.4699 14.1517 27.033 14.368 26.7106C14.5844 26.388 15.0212 26.3021 15.3436 26.5183C17.2103 27.7705 20.001 28.4886 23 28.4886C25.9992 28.4886 28.7899 27.7705 30.6563 26.5183C30.9787 26.3019 31.4156 26.388 31.632 26.7105C31.8483 27.0329 31.7623 27.4697 31.4398 27.6861C29.8275 28.7678 27.6306 29.4935 25.2108 29.7698L27.0863 32.15C27.2186 32.3178 27.4199 32.4164 27.6336 32.418C27.6521 32.4181 27.6703 32.4182 27.6887 32.4182C31.7546 32.4182 34.6969 29.1857 34.8207 29.0474C34.9452 28.9083 35.0093 28.7254 34.9989 28.5391V28.5391Z" fill="#948FE1"/>
<path d="M34.9989 28.5391C34.9824 28.2418 34.5619 21.2098 31.8915 17.0033C31.8369 16.9173 31.7642 16.8441 31.6786 16.789C28.3768 14.6628 26.1283 14.6679 26.0335 14.6685C25.7608 14.672 25.5259 14.8308 25.4124 15.06L24.278 17.2337C26.4059 17.3729 28.4266 17.8567 30.0715 18.6312C30.4229 18.7967 30.5736 19.2156 30.4082 19.5669C30.2883 19.8214 30.0354 19.9707 29.7716 19.9707C29.6712 19.9707 29.5694 19.9491 29.4725 19.9035C27.6845 19.0617 25.3858 18.598 23 18.598V28.4886C25.9992 28.4886 28.7899 27.7705 30.6563 26.5183C30.9787 26.3019 31.4156 26.388 31.632 26.7105C31.8483 27.0329 31.7623 27.4697 31.4398 27.6861C29.8275 28.7678 27.6306 29.4935 25.2108 29.7698L27.0863 32.15C27.2186 32.3178 27.4199 32.4164 27.6336 32.418C27.6521 32.4181 27.6703 32.4182 27.6887 32.4182C31.7546 32.4182 34.6969 29.1857 34.8207 29.0474C34.9452 28.9083 35.0093 28.7254 34.9989 28.5391Z" fill="#6E67D6"/>
<path d="M19.7686 21.6968C18.4962 21.6968 17.4609 22.732 17.4609 24.0045C17.4609 25.2769 18.4962 26.3122 19.7686 26.3122C21.041 26.3122 22.0763 25.2769 22.0763 24.0045C22.0763 22.732 21.041 21.6968 19.7686 21.6968Z" fill="#E7F0EF"/>
<path d="M26.2306 21.6968C24.9581 21.6968 23.9229 22.732 23.9229 24.0045C23.9229 25.2769 24.9581 26.3122 26.2306 26.3122C27.503 26.3122 28.5382 25.2769 28.5382 24.0045C28.5382 22.732 27.503 21.6968 26.2306 21.6968Z" fill="#C5E1E6"/>
<defs>
<filter id="filter0_bi_0_1" x="-86" y="-85.457" width="218" height="218" filterUnits="userSpaceOnUse" color-interpolation-filters="sRGB">
<feFlood flood-opacity="0" result="BackgroundImageFix"/>
<feGaussianBlur in="BackgroundImage" stdDeviation="43"/>
<feComposite in2="SourceAlpha" operator="in" result="effect1_backgroundBlur_0_1"/>
<feBlend mode="normal" in="SourceGraphic" in2="effect1_backgroundBlur_0_1" result="shape"/>
<feColorMatrix in="SourceAlpha" type="matrix" values="0 0 0 0 0 0 0 0 0 0 0 0 0 0 0 0 0 0 127 0" result="hardAlpha"/>
<feOffset dy="2"/>
<feGaussianBlur stdDeviation="2"/>
<feComposite in2="hardAlpha" operator="arithmetic" k2="-1" k3="1"/>
<feColorMatrix type="matrix" values="0 0 0 0 1 0 0 0 0 1 0 0 0 0 1 0 0 0 0.15 0"/>
<feBlend mode="normal" in2="shape" result="effect2_innerShadow_0_1"/>
</filter>
</defs>
</svg>
