<svg width="95" height="172" viewBox="0 0 95 172" fill="none" xmlns="http://www.w3.org/2000/svg">
<path d="M-56.2431 228.875C-99.1608 228.875 -133.954 194.033 -133.954 151.053C-133.954 108.073 -99.1608 73.2319 -56.2431 73.2319C-13.3254 73.2319 21.4675 108.073 21.4675 151.053C21.4675 194.033 -13.3254 228.875 -56.2431 228.875Z" stroke="#D4CAFF"/>
<path d="M-48.01 231.966C-96.0429 231.966 -134.982 192.973 -134.982 144.87C-134.982 96.7676 -96.0429 57.7739 -48.01 57.7739C0.0228615 57.7739 38.9624 96.7676 38.9624 144.87C38.9624 192.973 0.0228538 231.966 -48.01 231.966Z" stroke="#D4CAFF"/>
<path d="M-41.3211 235.058C-93.9007 235.058 -136.526 192.373 -136.526 139.717C-136.526 87.0617 -93.9007 44.3769 -41.3211 44.3769C11.2586 44.377 53.884 87.0617 53.884 139.717C53.884 192.373 11.2586 235.058 -41.3211 235.058Z" stroke="#D4CAFF"/>
<path d="M-31.5445 237.119C-88.1026 237.119 -133.953 191.205 -133.953 134.565C-133.953 77.9252 -88.1026 32.0107 -31.5445 32.0107C25.0136 32.0107 70.8643 77.9252 70.8643 134.565C70.8643 191.205 25.0136 237.119 -31.5445 237.119Z" stroke="#D4CAFF"/>
<path d="M-22.0257 239.18C-82.4202 239.18 -131.381 190.151 -131.381 129.67C-131.381 69.188 -82.4202 20.1592 -22.0257 20.1592C38.3688 20.1592 87.3293 69.188 87.3293 129.67C87.3293 190.151 38.3687 239.18 -22.0257 239.18Z" stroke="#D4CAFF"/>
<path d="M-11.22 241.757C-77.5822 241.757 -131.381 187.883 -131.38 121.425C-131.38 54.9677 -77.5822 1.09423 -11.22 1.09423C55.1421 1.09424 108.94 54.9677 108.94 121.425C108.94 187.883 55.1421 241.757 -11.22 241.757Z" stroke="#D4CAFF"/>
</svg>
