<svg width="46" height="47" viewBox="0 0 46 47" fill="none" xmlns="http://www.w3.org/2000/svg">
<g filter="url(#filter0_bi_0_1)">
<rect y="0.9375" width="46" height="46" rx="23" fill="white" fill-opacity="0.03"/>
</g>
<path d="M27.61 13.6743H18.389C15.2469 13.6743 12.7363 16.1848 12.7363 19.3269V28.5638C12.7363 31.6901 15.2469 34.2164 18.389 34.2164H27.6258C30.7521 34.2164 33.2784 31.7059 33.2784 28.5638V19.3269C33.2626 16.1848 30.7521 13.6743 27.61 13.6743ZM31.4626 27.7427C31.4626 30.3006 29.3784 32.4164 26.789 32.4164H19.21C16.6521 32.4164 14.5363 30.3322 14.5363 27.7427V20.148C14.5363 17.5901 16.6205 15.4743 19.21 15.4743H26.8363C29.3942 15.4743 31.51 17.5585 31.51 20.148V27.7427H31.4626Z" fill="url(#paint0_linear_0_1)"/>
<path d="M26.7421 20.2424L26.6947 20.195L26.6474 20.1476C25.6684 19.1687 24.3579 18.6318 23 18.6318C20.0947 18.6476 17.7421 21.0318 17.7579 23.9371C17.7579 25.3424 18.3263 26.6845 19.3053 27.6792C20.2842 28.6739 21.6105 29.2266 23 29.2266C25.9211 29.1792 28.2579 26.7318 28.2105 23.7792C28.179 22.4687 27.6737 21.1897 26.7421 20.2424ZM23 27.4266C21.0737 27.4581 19.5105 25.9108 19.4789 23.9845C19.4474 22.0581 20.9947 20.495 22.9211 20.4634C24.8474 20.4318 26.4105 21.9792 26.4421 23.9055V23.9529C26.4421 25.8318 24.8947 27.395 23 27.4266Z" fill="url(#paint1_linear_0_1)"/>
<path d="M29.7738 18.395C29.7738 19.0897 29.237 19.6581 28.5422 19.6581C28.2106 19.6581 27.8949 19.5318 27.6738 19.295C27.1843 18.8055 27.1843 17.9845 27.7054 17.495C27.9422 17.2582 28.2422 17.1318 28.5738 17.1318C28.858 17.1318 29.1422 17.2424 29.3633 17.416L29.3949 17.4476C29.4422 17.4792 29.4738 17.5266 29.5054 17.5581L29.537 17.5897C29.6633 17.8108 29.7738 18.095 29.7738 18.395Z" fill="url(#paint2_linear_0_1)"/>
<defs>
<filter id="filter0_bi_0_1" x="-86" y="-85.0625" width="218" height="218" filterUnits="userSpaceOnUse" color-interpolation-filters="sRGB">
<feFlood flood-opacity="0" result="BackgroundImageFix"/>
<feGaussianBlur in="BackgroundImage" stdDeviation="43"/>
<feComposite in2="SourceAlpha" operator="in" result="effect1_backgroundBlur_0_1"/>
<feBlend mode="normal" in="SourceGraphic" in2="effect1_backgroundBlur_0_1" result="shape"/>
<feColorMatrix in="SourceAlpha" type="matrix" values="0 0 0 0 0 0 0 0 0 0 0 0 0 0 0 0 0 0 127 0" result="hardAlpha"/>
<feOffset dy="2"/>
<feGaussianBlur stdDeviation="2"/>
<feComposite in2="hardAlpha" operator="arithmetic" k2="-1" k3="1"/>
<feColorMatrix type="matrix" values="0 0 0 0 1 0 0 0 0 1 0 0 0 0 1 0 0 0 0.15 0"/>
<feBlend mode="normal" in2="shape" result="effect2_innerShadow_0_1"/>
</filter>
<linearGradient id="paint0_linear_0_1" x1="14.3849" y1="15.3229" x2="31.6141" y2="32.5521" gradientUnits="userSpaceOnUse">
<stop stop-color="#FAE100"/>
<stop offset="0.15" stop-color="#FCB720"/>
<stop offset="0.3" stop-color="#FF7950"/>
<stop offset="0.5" stop-color="#FF1C74"/>
<stop offset="1" stop-color="#6C1CD1"/>
</linearGradient>
<linearGradient id="paint1_linear_0_1" x1="19.2762" y1="20.2136" x2="26.696" y2="27.6334" gradientUnits="userSpaceOnUse">
<stop stop-color="#FAE100"/>
<stop offset="0.15" stop-color="#FCB720"/>
<stop offset="0.3" stop-color="#FF7950"/>
<stop offset="0.5" stop-color="#FF1C74"/>
<stop offset="1" stop-color="#6C1CD1"/>
</linearGradient>
<linearGradient id="paint2_linear_0_1" x1="27.6673" y1="17.5016" x2="29.4331" y2="19.2674" gradientUnits="userSpaceOnUse">
<stop stop-color="#FAE100"/>
<stop offset="0.15" stop-color="#FCB720"/>
<stop offset="0.3" stop-color="#FF7950"/>
<stop offset="0.5" stop-color="#FF1C74"/>
<stop offset="1" stop-color="#6C1CD1"/>
</linearGradient>
</defs>
</svg>
