<svg width="34" height="35" viewBox="0 0 34 35" fill="none" xmlns="http://www.w3.org/2000/svg">
<g filter="url(#filter0_bi_12_359)">
<path d="M12.8968 13.2917H32.8278C33.4745 13.2937 33.9983 13.8175 34.0003 14.4642V29.7055C33.9983 30.3522 33.4745 30.876 32.8278 30.878H31.0692C30.7455 30.878 30.483 31.1404 30.483 31.4642V33.2228C30.4819 33.6637 30.2336 34.0668 29.8402 34.266C29.4468 34.4651 28.9749 34.4267 28.6189 34.1666L24.3454 31.1007C24.1438 30.9559 23.9019 30.878 23.6537 30.878H12.8968C12.2501 30.876 11.7263 30.3522 11.7244 29.7055V14.4642C11.7244 13.8167 12.2493 13.2917 12.8968 13.2917V13.2917Z" fill="#866ADC" fill-opacity="0.1"/>
</g>
<g filter="url(#filter1_bi_12_359)">
<path d="M0 1.56768V16.8091C0 17.4566 0.524908 17.9815 1.17241 17.9815H2.93103C3.25479 17.9815 3.51724 18.2439 3.51724 18.5677V20.3263C3.51718 20.7673 3.76455 21.171 4.15746 21.3711C4.55037 21.5713 5.02236 21.5341 5.37903 21.2748L9.65835 18.2083C9.85804 18.0619 10.0989 17.9825 10.3466 17.9815H21.1034C21.751 17.9815 22.2759 17.4566 22.2759 16.8091V1.56768C22.2759 0.920171 21.751 0.395264 21.1034 0.395264H1.17241C0.524908 0.395264 0 0.920171 0 1.56768Z" fill="#31B791" fill-opacity="0.1"/>
</g>
<path d="M8.20676 7.42978C8.05131 7.42975 7.90223 7.36797 7.79232 7.25802L6.03369 5.4994C5.80485 5.27049 5.80485 4.89942 6.03369 4.67051L7.79232 2.91189C7.9395 2.7595 8.15745 2.69838 8.36241 2.75203C8.56736 2.80568 8.72742 2.96574 8.78107 3.17069C8.83472 3.37565 8.7736 3.5936 8.62121 3.74078L7.27704 5.08496L8.62121 6.42913C8.78881 6.59678 8.83894 6.84887 8.74823 7.06789C8.65752 7.28691 8.44382 7.42973 8.20676 7.42978V7.42978Z" fill="#3083FF"/>
<path d="M14.069 7.42977C13.8319 7.42972 13.6183 7.28689 13.5275 7.06787C13.4368 6.84886 13.487 6.59676 13.6546 6.42911L14.9987 5.08494L13.6546 3.74077C13.4324 3.51075 13.4356 3.14513 13.6617 2.91901C13.8878 2.69289 14.2534 2.68971 14.4835 2.91187L16.2421 4.67049C16.4709 4.8994 16.4709 5.27047 16.2421 5.49939L14.4835 7.25801C14.3735 7.36795 14.2245 7.42973 14.069 7.42977Z" fill="#3083FF"/>
<path d="M10.5518 8.01586C10.5038 8.01605 10.4559 8.01014 10.4094 7.99827C10.2585 7.96062 10.1287 7.86453 10.0487 7.73117C9.96862 7.5978 9.94487 7.43809 9.98262 7.2872L11.155 2.59755C11.2355 2.28565 11.5526 2.09715 11.8651 2.17542C12.1776 2.2537 12.3683 2.56943 12.2923 2.88244L11.1199 7.5721C11.0546 7.83271 10.8205 8.01558 10.5518 8.01586V8.01586Z" fill="#3083FF"/>
<path d="M19.9313 25.6021C19.7759 25.6021 19.6268 25.5403 19.5169 25.4303L18.3445 24.2579C18.1156 24.029 18.1156 23.6579 18.3445 23.429L19.5169 22.2566C19.7469 22.0344 20.1125 22.0376 20.3387 22.2637C20.5648 22.4899 20.568 22.8555 20.3458 23.0855L19.5878 23.8435L20.3458 24.6014C20.5134 24.7691 20.5635 25.0212 20.4728 25.2402C20.3821 25.4592 20.1684 25.602 19.9313 25.6021Z" fill="#75FF5F"/>
<path d="M25.2067 25.6021C24.9696 25.602 24.7559 25.4592 24.6652 25.2402C24.5745 25.0212 24.6247 24.7691 24.7923 24.6014L25.5502 23.8435L24.7923 23.0855C24.5701 22.8555 24.5733 22.4899 24.7994 22.2637C25.0255 22.0376 25.3911 22.0344 25.6212 22.2566L26.7936 23.429C27.0224 23.6579 27.0224 24.029 26.7936 24.2579L25.6212 25.4303C25.5112 25.5403 25.3622 25.6021 25.2067 25.6021Z" fill="#75FF5F"/>
<path d="M22.276 26.1884C22.2436 26.1886 22.2112 26.1858 22.1793 26.1802C21.8602 26.127 21.6445 25.8253 21.6974 25.5061L22.2836 21.9888C22.345 21.678 22.6424 21.4721 22.9549 21.5241C23.2675 21.5761 23.4822 21.8671 23.4396 22.1811L22.8534 25.6984C22.8065 25.9808 22.5624 26.188 22.276 26.1884Z" fill="#75FF5F"/>
<path d="M19.3445 10.9471H18.7583C18.4346 10.9471 18.1721 10.6846 18.1721 10.3609C18.1721 10.0371 18.4346 9.77466 18.7583 9.77466H19.3445C19.6683 9.77466 19.9307 10.0371 19.9307 10.3609C19.9307 10.6846 19.6683 10.9471 19.3445 10.9471Z" fill="#3083FF"/>
<path d="M19.3445 13.2918H18.7583C18.4346 13.2918 18.1721 13.0293 18.1721 12.7056C18.1721 12.3818 18.4346 12.1194 18.7583 12.1194H19.3445C19.6683 12.1194 19.9307 12.3818 19.9307 12.7056C19.9307 13.0293 19.6683 13.2918 19.3445 13.2918Z" fill="#3083FF"/>
<path d="M16.4134 10.9471H3.51687C3.19312 10.9471 2.93066 10.6846 2.93066 10.3609C2.93066 10.0371 3.19312 9.77466 3.51687 9.77466H16.4134C16.7372 9.77466 16.9996 10.0371 16.9996 10.3609C16.9996 10.6846 16.7372 10.9471 16.4134 10.9471Z" fill="#3083FF"/>
<path d="M11.1376 15.6368H3.51687C3.19312 15.6368 2.93066 15.3743 2.93066 15.0506C2.93066 14.7268 3.19312 14.4644 3.51687 14.4644H11.1376C11.4613 14.4644 11.7238 14.7268 11.7238 15.0506C11.7238 15.3743 11.4613 15.6368 11.1376 15.6368Z" fill="#3083FF"/>
<path d="M16.4131 13.2918H6.44754C6.12378 13.2918 5.86133 13.0293 5.86133 12.7056C5.86133 12.3818 6.12378 12.1194 6.44754 12.1194H16.4131C16.7368 12.1194 16.9993 12.3818 16.9993 12.7056C16.9993 13.0293 16.7368 13.2918 16.4131 13.2918Z" fill="#3083FF"/>
<path d="M4.10308 13.2918H3.51687C3.19312 13.2918 2.93066 13.0293 2.93066 12.7056C2.93066 12.3818 3.19312 12.1194 3.51687 12.1194H4.10308C4.42683 12.1194 4.68928 12.3818 4.68928 12.7056C4.68928 13.0293 4.42683 13.2918 4.10308 13.2918Z" fill="#3083FF"/>
<path d="M18.7583 27.9471C17.4633 27.9471 16.4135 26.8973 16.4135 25.6023C16.4135 25.2219 15.5787 24.6374 15.0019 24.3789C14.7912 24.2844 14.6555 24.075 14.6555 23.844C14.6555 23.613 14.7912 23.4035 15.0019 23.3091C15.669 23.0078 16.4135 22.4309 16.4135 22.0851C16.4135 20.79 17.4633 19.7402 18.7583 19.7402C19.0821 19.7402 19.3445 20.0027 19.3445 20.3264C19.3445 20.6502 19.0821 20.9126 18.7583 20.9126C18.1108 20.9126 17.5859 21.4376 17.5859 22.0851C17.4954 22.8237 17.0605 23.476 16.4135 23.8437C17.0605 24.2114 17.4954 24.8636 17.5859 25.6023C17.5859 26.2498 18.1108 26.7747 18.7583 26.7747C19.0821 26.7747 19.3445 27.0372 19.3445 27.3609C19.3445 27.6847 19.0821 27.9471 18.7583 27.9471V27.9471Z" fill="#75FF5F"/>
<path d="M26.3792 27.9471C26.0554 27.9471 25.793 27.6847 25.793 27.3609C25.793 27.0372 26.0554 26.7747 26.3792 26.7747C27.0267 26.7747 27.5516 26.2498 27.5516 25.6023C27.6421 24.8636 28.077 24.2114 28.724 23.8437C28.077 23.476 27.6421 22.8237 27.5516 22.0851C27.5516 21.4376 27.0267 20.9126 26.3792 20.9126C26.0554 20.9126 25.793 20.6502 25.793 20.3264C25.793 20.0027 26.0554 19.7402 26.3792 19.7402C27.6742 19.7402 28.724 20.79 28.724 22.0851C28.724 22.4655 29.5588 23.05 30.1356 23.3085C30.3463 23.403 30.482 23.6124 30.482 23.8434C30.482 24.0744 30.3463 24.2838 30.1356 24.3783C29.4685 24.6796 28.724 25.2564 28.724 25.6023C28.724 26.8973 27.6742 27.9471 26.3792 27.9471V27.9471Z" fill="#75FF5F"/>
<defs>
<filter id="filter0_bi_12_359" x="3.72437" y="5.29175" width="38.2759" height="37.1006" filterUnits="userSpaceOnUse" color-interpolation-filters="sRGB">
<feFlood flood-opacity="0" result="BackgroundImageFix"/>
<feGaussianBlur in="BackgroundImage" stdDeviation="4"/>
<feComposite in2="SourceAlpha" operator="in" result="effect1_backgroundBlur_12_359"/>
<feBlend mode="normal" in="SourceGraphic" in2="effect1_backgroundBlur_12_359" result="shape"/>
<feColorMatrix in="SourceAlpha" type="matrix" values="0 0 0 0 0 0 0 0 0 0 0 0 0 0 0 0 0 0 127 0" result="hardAlpha"/>
<feOffset dy="2"/>
<feGaussianBlur stdDeviation="1"/>
<feComposite in2="hardAlpha" operator="arithmetic" k2="-1" k3="1"/>
<feColorMatrix type="matrix" values="0 0 0 0 1 0 0 0 0 1 0 0 0 0 1 0 0 0 0.3 0"/>
<feBlend mode="normal" in2="shape" result="effect2_innerShadow_12_359"/>
</filter>
<filter id="filter1_bi_12_359" x="-8" y="-7.60474" width="38.2759" height="37.1035" filterUnits="userSpaceOnUse" color-interpolation-filters="sRGB">
<feFlood flood-opacity="0" result="BackgroundImageFix"/>
<feGaussianBlur in="BackgroundImage" stdDeviation="4"/>
<feComposite in2="SourceAlpha" operator="in" result="effect1_backgroundBlur_12_359"/>
<feBlend mode="normal" in="SourceGraphic" in2="effect1_backgroundBlur_12_359" result="shape"/>
<feColorMatrix in="SourceAlpha" type="matrix" values="0 0 0 0 0 0 0 0 0 0 0 0 0 0 0 0 0 0 127 0" result="hardAlpha"/>
<feOffset dy="2"/>
<feGaussianBlur stdDeviation="1"/>
<feComposite in2="hardAlpha" operator="arithmetic" k2="-1" k3="1"/>
<feColorMatrix type="matrix" values="0 0 0 0 1 0 0 0 0 1 0 0 0 0 1 0 0 0 0.3 0"/>
<feBlend mode="normal" in2="shape" result="effect2_innerShadow_12_359"/>
</filter>
</defs>
</svg>
