<svg width="125" height="125" viewBox="0 0 125 125" fill="none" xmlns="http://www.w3.org/2000/svg">
<path d="M11.5586 117.622V119.491H0.837891V117.622H11.5586ZM7.19727 113.057V124.443H5.20996V113.057H7.19727Z" fill="#2A3770"/>
<path d="M39.8115 89.3691V91.2383H29.0908V89.3691H39.8115ZM35.4502 84.8037V96.1904H33.4629V84.8037H35.4502Z" fill="#2A3770"/>
<path d="M68.0647 32.8633V34.7324H57.344V32.8633H68.0647ZM63.7034 28.2979V39.6846H61.7161V28.2979H63.7034Z" fill="#2A3770"/>
<path d="M68.0647 61.1162V62.9854H57.344V61.1162H68.0647ZM63.7034 56.5508V67.9375H61.7161V56.5508H63.7034Z" fill="url(#paint0_linear_0_1)"/>
<path d="M68.0647 89.3691V91.2383H57.344V89.3691H68.0647ZM63.7034 84.8037V96.1904H61.7161V84.8037H63.7034Z" fill="#2A3770"/>
<path d="M68.0647 117.622V119.491H57.344V117.622H68.0647ZM63.7034 113.057V124.443H61.7161V113.057H63.7034Z" fill="#2A3770"/>
<path d="M96.3176 32.8633V34.7324H85.5969V32.8633H96.3176ZM91.9563 28.2979V39.6846H89.969V28.2979H91.9563Z" fill="#2A3770"/>
<path d="M96.3176 61.1162V62.9854H85.5969V61.1162H96.3176ZM91.9563 56.5508V67.9375H89.969V56.5508H91.9563Z" fill="#2A3770"/>
<path d="M96.3176 89.3691V91.2383H85.5969V89.3691H96.3176ZM91.9563 84.8037V96.1904H89.969V84.8037H91.9563Z" fill="#2A3770"/>
<path d="M96.3176 117.622V119.491H85.5969V117.622H96.3176ZM91.9563 113.057V124.443H89.969V113.057H91.9563Z" fill="#2A3770"/>
<path d="M124.571 4.61035V6.47949H113.85V4.61035H124.571ZM120.209 0.0449219V11.4316H118.222V0.0449219H120.209Z" fill="url(#paint1_linear_0_1)"/>
<path d="M124.571 32.8633V34.7324H113.85V32.8633H124.571ZM120.209 28.2979V39.6846H118.222V28.2979H120.209Z" fill="#2A3770"/>
<path d="M124.571 61.1162V62.9854H113.85V61.1162H124.571ZM120.209 56.5508V67.9375H118.222V56.5508H120.209Z" fill="#2A3770"/>
<path d="M124.571 89.3691V91.2383H113.85V89.3691H124.571ZM120.209 84.8037V96.1904H118.222V84.8037H120.209Z" fill="#2A3770"/>
<path d="M124.571 117.622V119.491H113.85V117.622H124.571ZM120.209 113.057V124.443H118.222V113.057H120.209Z" fill="#2A3770"/>
<defs>
<linearGradient id="paint0_linear_0_1" x1="66.7028" y1="69.179" x2="50.2536" y2="60.8416" gradientUnits="userSpaceOnUse">
<stop stop-color="#F64F59"/>
<stop offset="0.484375" stop-color="#C471ED"/>
<stop offset="1" stop-color="#12C2E9"/>
</linearGradient>
<linearGradient id="paint1_linear_0_1" x1="123.209" y1="12.6731" x2="106.759" y2="4.33571" gradientUnits="userSpaceOnUse">
<stop stop-color="#F64F59"/>
<stop offset="0.484375" stop-color="#C471ED"/>
<stop offset="1" stop-color="#12C2E9"/>
</linearGradient>
</defs>
</svg>
