<svg width="36" height="36" viewBox="0 0 36 36" fill="none" xmlns="http://www.w3.org/2000/svg">
<g clip-path="url(#clip0_12_324)">
<g filter="url(#filter0_bi_12_324)">
<path d="M17.9995 35.895C27.6645 35.895 35.4995 28.06 35.4995 18.395C35.4995 8.73004 27.6645 0.89502 17.9995 0.89502C8.33453 0.89502 0.499512 8.73004 0.499512 18.395C0.499512 28.06 8.33453 35.895 17.9995 35.895Z" fill="white" fill-opacity="0.1"/>
</g>
<path d="M10.0495 10.4452L7.39951 7.79517C6.00482 9.18567 4.89824 10.8377 4.14321 12.6567C3.38817 14.4757 2.99951 16.4257 2.99951 18.3952C2.99951 20.3646 3.38817 22.3147 4.14321 24.1336C4.89824 25.9526 6.00482 27.6047 7.39951 28.9952L10.0495 26.3452C9.00349 25.3023 8.17356 24.0632 7.60728 22.699C7.041 21.3348 6.7495 19.8722 6.7495 18.3952C6.7495 16.9181 7.041 15.4555 7.60728 14.0913C8.17356 12.7271 9.00349 11.488 10.0495 10.4452Z" fill="#01E676"/>
<path d="M25.9494 10.445L28.5994 7.79502C27.2089 6.40032 25.5568 5.29375 23.7379 4.53871C21.9189 3.78368 19.9688 3.39502 17.9994 3.39502C16.03 3.39502 14.0799 3.78368 12.2609 4.53871C10.442 5.29375 8.78992 6.40032 7.39941 7.79502L10.0494 10.445C11.0923 9.399 12.3313 8.56906 13.6956 8.00278C15.0598 7.4365 16.5223 7.14501 17.9994 7.14501C19.4765 7.14501 20.939 7.4365 22.3033 8.00278C23.6675 8.56906 24.9065 9.399 25.9494 10.445Z" fill="#FF9900"/>
<path d="M25.9492 26.3449L28.5992 28.9949C29.9939 27.6044 31.1005 25.9523 31.8555 24.1334C32.6106 22.3144 32.9992 20.3644 32.9992 18.3949C32.9992 16.4255 32.6106 14.4754 31.8555 12.6565C31.1005 10.8375 29.9939 9.18543 28.5992 7.79492L25.9492 10.4449C26.9952 11.4878 27.8252 12.7269 28.3914 14.0911C28.9577 15.4553 29.2492 16.9178 29.2492 18.3949C29.2492 19.872 28.9577 21.3346 28.3914 22.6988C27.8252 24.063 26.9952 25.302 25.9492 26.3449Z" fill="#FF011D"/>
<g filter="url(#filter1_bi_12_324)">
<path d="M21.0311 17.6678L24.2589 13.0053C24.3422 12.8851 24.3807 12.7393 24.3676 12.5936C24.3545 12.4478 24.2906 12.3113 24.1872 12.2079C24.0837 12.1044 23.9472 12.0405 23.8014 12.0274C23.6557 12.0143 23.5099 12.0528 23.3897 12.1362L18.7272 15.364C18.0649 15.204 17.3685 15.2648 16.7441 15.5372C16.1196 15.8096 15.6012 16.2786 15.2679 16.8728C14.9346 17.467 14.8046 18.1538 14.8977 18.8287C14.9908 19.5036 15.302 20.1296 15.7837 20.6113C16.2655 21.0931 16.8914 21.4042 17.5663 21.4973C18.2412 21.5904 18.9281 21.4604 19.5223 21.1271C20.1165 20.7938 20.5854 20.2754 20.8578 19.6509C21.1302 19.0265 21.191 18.3301 21.0311 17.6678Z" fill="#B4B4B4" fill-opacity="0.1"/>
</g>
<path d="M17.9995 19.02C18.3447 19.02 18.6245 18.7402 18.6245 18.395C18.6245 18.0498 18.3447 17.77 17.9995 17.77C17.6543 17.77 17.3745 18.0498 17.3745 18.395C17.3745 18.7402 17.6543 19.02 17.9995 19.02Z" fill="#EEEEEE"/>
<g filter="url(#filter2_bi_12_324)">
<path d="M14.8745 28.395H13.6245C13.2793 28.395 12.9995 28.6748 12.9995 29.02V31.52C12.9995 31.8652 13.2793 32.145 13.6245 32.145H14.8745C15.2197 32.145 15.4995 31.8652 15.4995 31.52V29.02C15.4995 28.6748 15.2197 28.395 14.8745 28.395Z" fill="#B4B4B4" fill-opacity="0.1"/>
</g>
<g filter="url(#filter3_bi_12_324)">
<path d="M18.6245 28.395H17.3745C17.0293 28.395 16.7495 28.6748 16.7495 29.02V31.52C16.7495 31.8652 17.0293 32.145 17.3745 32.145H18.6245C18.9697 32.145 19.2495 31.8652 19.2495 31.52V29.02C19.2495 28.6748 18.9697 28.395 18.6245 28.395Z" fill="#B4B4B4" fill-opacity="0.1"/>
</g>
<g filter="url(#filter4_bi_12_324)">
<path d="M22.3745 28.395H21.1245C20.7793 28.395 20.4995 28.6748 20.4995 29.02V31.52C20.4995 31.8652 20.7793 32.145 21.1245 32.145H22.3745C22.7197 32.145 22.9995 31.8652 22.9995 31.52V29.02C22.9995 28.6748 22.7197 28.395 22.3745 28.395Z" fill="#B4B4B4" fill-opacity="0.1"/>
</g>
</g>
<defs>
<filter id="filter0_bi_12_324" x="-7.50049" y="-7.10498" width="51" height="51" filterUnits="userSpaceOnUse" color-interpolation-filters="sRGB">
<feFlood flood-opacity="0" result="BackgroundImageFix"/>
<feGaussianBlur in="BackgroundImage" stdDeviation="4"/>
<feComposite in2="SourceAlpha" operator="in" result="effect1_backgroundBlur_12_324"/>
<feBlend mode="normal" in="SourceGraphic" in2="effect1_backgroundBlur_12_324" result="shape"/>
<feColorMatrix in="SourceAlpha" type="matrix" values="0 0 0 0 0 0 0 0 0 0 0 0 0 0 0 0 0 0 127 0" result="hardAlpha"/>
<feOffset dy="2"/>
<feGaussianBlur stdDeviation="1"/>
<feComposite in2="hardAlpha" operator="arithmetic" k2="-1" k3="1"/>
<feColorMatrix type="matrix" values="0 0 0 0 1 0 0 0 0 1 0 0 0 0 1 0 0 0 0.3 0"/>
<feBlend mode="normal" in2="shape" result="effect2_innerShadow_12_324"/>
</filter>
<filter id="filter1_bi_12_324" x="6.86841" y="4.0249" width="25.5017" height="25.5017" filterUnits="userSpaceOnUse" color-interpolation-filters="sRGB">
<feFlood flood-opacity="0" result="BackgroundImageFix"/>
<feGaussianBlur in="BackgroundImage" stdDeviation="4"/>
<feComposite in2="SourceAlpha" operator="in" result="effect1_backgroundBlur_12_324"/>
<feBlend mode="normal" in="SourceGraphic" in2="effect1_backgroundBlur_12_324" result="shape"/>
<feColorMatrix in="SourceAlpha" type="matrix" values="0 0 0 0 0 0 0 0 0 0 0 0 0 0 0 0 0 0 127 0" result="hardAlpha"/>
<feOffset dy="2"/>
<feGaussianBlur stdDeviation="1"/>
<feComposite in2="hardAlpha" operator="arithmetic" k2="-1" k3="1"/>
<feColorMatrix type="matrix" values="0 0 0 0 1 0 0 0 0 1 0 0 0 0 1 0 0 0 0.3 0"/>
<feBlend mode="normal" in2="shape" result="effect2_innerShadow_12_324"/>
</filter>
<filter id="filter2_bi_12_324" x="4.99951" y="20.395" width="18.5" height="19.75" filterUnits="userSpaceOnUse" color-interpolation-filters="sRGB">
<feFlood flood-opacity="0" result="BackgroundImageFix"/>
<feGaussianBlur in="BackgroundImage" stdDeviation="4"/>
<feComposite in2="SourceAlpha" operator="in" result="effect1_backgroundBlur_12_324"/>
<feBlend mode="normal" in="SourceGraphic" in2="effect1_backgroundBlur_12_324" result="shape"/>
<feColorMatrix in="SourceAlpha" type="matrix" values="0 0 0 0 0 0 0 0 0 0 0 0 0 0 0 0 0 0 127 0" result="hardAlpha"/>
<feOffset dy="2"/>
<feGaussianBlur stdDeviation="1"/>
<feComposite in2="hardAlpha" operator="arithmetic" k2="-1" k3="1"/>
<feColorMatrix type="matrix" values="0 0 0 0 1 0 0 0 0 1 0 0 0 0 1 0 0 0 0.3 0"/>
<feBlend mode="normal" in2="shape" result="effect2_innerShadow_12_324"/>
</filter>
<filter id="filter3_bi_12_324" x="8.74951" y="20.395" width="18.5" height="19.75" filterUnits="userSpaceOnUse" color-interpolation-filters="sRGB">
<feFlood flood-opacity="0" result="BackgroundImageFix"/>
<feGaussianBlur in="BackgroundImage" stdDeviation="4"/>
<feComposite in2="SourceAlpha" operator="in" result="effect1_backgroundBlur_12_324"/>
<feBlend mode="normal" in="SourceGraphic" in2="effect1_backgroundBlur_12_324" result="shape"/>
<feColorMatrix in="SourceAlpha" type="matrix" values="0 0 0 0 0 0 0 0 0 0 0 0 0 0 0 0 0 0 127 0" result="hardAlpha"/>
<feOffset dy="2"/>
<feGaussianBlur stdDeviation="1"/>
<feComposite in2="hardAlpha" operator="arithmetic" k2="-1" k3="1"/>
<feColorMatrix type="matrix" values="0 0 0 0 1 0 0 0 0 1 0 0 0 0 1 0 0 0 0.3 0"/>
<feBlend mode="normal" in2="shape" result="effect2_innerShadow_12_324"/>
</filter>
<filter id="filter4_bi_12_324" x="12.4995" y="20.395" width="18.5" height="19.75" filterUnits="userSpaceOnUse" color-interpolation-filters="sRGB">
<feFlood flood-opacity="0" result="BackgroundImageFix"/>
<feGaussianBlur in="BackgroundImage" stdDeviation="4"/>
<feComposite in2="SourceAlpha" operator="in" result="effect1_backgroundBlur_12_324"/>
<feBlend mode="normal" in="SourceGraphic" in2="effect1_backgroundBlur_12_324" result="shape"/>
<feColorMatrix in="SourceAlpha" type="matrix" values="0 0 0 0 0 0 0 0 0 0 0 0 0 0 0 0 0 0 127 0" result="hardAlpha"/>
<feOffset dy="2"/>
<feGaussianBlur stdDeviation="1"/>
<feComposite in2="hardAlpha" operator="arithmetic" k2="-1" k3="1"/>
<feColorMatrix type="matrix" values="0 0 0 0 1 0 0 0 0 1 0 0 0 0 1 0 0 0 0.3 0"/>
<feBlend mode="normal" in2="shape" result="effect2_innerShadow_12_324"/>
</filter>
<clipPath id="clip0_12_324">
<rect width="35" height="35" fill="white" transform="translate(0.499512 0.89502)"/>
</clipPath>
</defs>
</svg>
