<svg width="70" height="70" viewBox="0 0 70 70" fill="none" xmlns="http://www.w3.org/2000/svg">
<circle cx="35" cy="35" r="35" fill="url(#paint0_linear_0_1)"/>
<path d="M52.6104 23.9903C53.3018 25.1878 53.2091 26.6136 52.3677 27.711L33.8939 51.8182C33.132 52.8123 31.8775 53.3191 30.5948 53.0729C29.3386 52.8313 28.3426 51.9157 27.997 50.6841L25.2635 40.9555L24.9788 39.9436L24.2448 39.1911L17.1864 31.9595C16.2927 31.0444 15.9977 29.724 16.4166 28.5154C16.8311 27.3206 17.8708 26.4536 19.1527 26.2856L49.2669 22.3403C50.638 22.1603 51.9191 22.793 52.6104 23.9903Z" fill="white"/>
<path d="M25.2636 40.9552L27.997 50.6839C28.3426 51.9155 29.3385 52.8311 30.5947 53.0727C31.8775 53.319 33.1319 52.8122 33.8938 51.818L52.3676 27.7106C53.209 26.6132 53.3017 25.1874 52.6104 23.99L24.9789 39.9433L25.2636 40.9552Z" fill="white"/>
<path d="M36.2235 33.4512C36.5046 33.9381 36.3382 34.5612 35.8506 34.8427L25.2638 40.9548L24.9791 39.9429L24.2451 39.1904L34.8319 33.0783C35.3195 32.7969 35.9423 32.9642 36.2235 33.4512Z" fill="url(#paint1_linear_0_1)"/>
<path d="M25.2632 40.955L35.8499 34.8426C36.3374 34.5612 36.5039 33.9381 36.2228 33.4511L24.9786 39.943L25.2632 40.955Z" fill="url(#paint2_linear_0_1)"/>
<defs>
<linearGradient id="paint0_linear_0_1" x1="68.0167" y1="68.95" x2="0" y2="0" gradientUnits="userSpaceOnUse">
<stop stop-color="#F64F59"/>
<stop offset="0.484375" stop-color="#C471ED"/>
<stop offset="1" stop-color="#12C2E9"/>
</linearGradient>
<linearGradient id="paint1_linear_0_1" x1="36.3926" y1="34.4945" x2="33.9487" y2="31.4362" gradientUnits="userSpaceOnUse">
<stop stop-color="#F64F59"/>
<stop offset="0.484375" stop-color="#C471ED"/>
<stop offset="1" stop-color="#12C2E9"/>
</linearGradient>
<linearGradient id="paint2_linear_0_1" x1="32.9024" y1="35.4012" x2="33.5065" y2="36.5254" gradientUnits="userSpaceOnUse">
<stop stop-color="#747DEF"/>
<stop offset="1" stop-color="#5E3BE1"/>
</linearGradient>
</defs>
</svg>
