<svg width="12" height="12" viewBox="0 0 12 12" fill="none" xmlns="http://www.w3.org/2000/svg">
<path d="M1.51396 0.249216L6 4.7351L10.4676 0.267676C10.5459 0.184343 10.6402 0.11768 10.7449 0.0716837C10.8496 0.0256874 10.9625 0.00130547 11.0768 0C11.3216 0 11.5564 0.0972465 11.7295 0.270346C11.9026 0.443446 11.9999 0.67822 11.9999 0.923021C12.002 1.03618 11.981 1.1486 11.9381 1.25335C11.8953 1.35811 11.8315 1.45301 11.7506 1.53221L7.23689 5.99964L11.7506 10.5132C11.9028 10.662 11.992 10.8636 11.9999 11.0762C11.9999 11.321 11.9026 11.5558 11.7295 11.7289C11.5564 11.902 11.3216 11.9993 11.0768 11.9993C10.9592 12.0042 10.8418 11.9845 10.7321 11.9416C10.6225 11.8987 10.523 11.8335 10.4399 11.7501L6 7.26417L1.52319 11.7408C1.4452 11.8214 1.35202 11.8857 1.24904 11.93C1.14607 11.9744 1.03532 11.9979 0.923204 11.9993C0.678395 11.9993 0.443613 11.902 0.270506 11.7289C0.0974002 11.5558 0.000150186 11.321 0.000150186 11.0762C-0.00200191 10.9631 0.0189948 10.8507 0.0618518 10.7459C0.104709 10.6412 0.168522 10.5463 0.249375 10.4671L4.76311 5.99964L0.249375 1.48606C0.0972416 1.33723 0.00803271 1.1357 0.000150186 0.923021C0.000150186 0.67822 0.0974002 0.443446 0.270506 0.270346C0.443613 0.0972465 0.678395 0 0.923204 0C1.14474 0.00276906 1.35704 0.0923021 1.51396 0.249216Z" fill="#0A8DFF"/>
</svg>
