<svg width="12" height="14" viewBox="0 0 12 14" fill="none" xmlns="http://www.w3.org/2000/svg">
<path fill-rule="evenodd" clip-rule="evenodd" d="M3.25245 0.55916C3.62753 0.201136 4.13623 0 4.66667 0H7.79C8.31257 6.20918e-05 8.81445 0.195355 9.18808 0.544091L11.398 2.6071C11.5885 2.78488 11.7399 2.99721 11.8433 3.23161C11.9467 3.46602 12 3.71777 12 3.9721V9.54545C12 10.0518 11.7893 10.5374 11.4142 10.8954C11.0391 11.2534 10.5304 11.4545 10 11.4545H9.33333V12.0909C9.33333 12.5972 9.12262 13.0828 8.74755 13.4408C8.37247 13.7989 7.86377 14 7.33333 14H2C1.46957 14 0.960859 13.7989 0.585786 13.4408C0.210714 13.0828 0 12.5972 0 12.0909V5.09091C0 4.58459 0.210714 4.099 0.585786 3.74098C0.960859 3.38295 1.46957 3.18182 2 3.18182H2.66667V1.90909C2.66667 1.40277 2.87738 0.917184 3.25245 0.55916ZM2.66667 4.45455H2C1.82319 4.45455 1.65362 4.52159 1.5286 4.64093C1.40357 4.76027 1.33333 4.92213 1.33333 5.09091V12.0909C1.33333 12.2597 1.40357 12.4215 1.5286 12.5409C1.65362 12.6602 1.82319 12.7273 2 12.7273H7.33333C7.51014 12.7273 7.67971 12.6602 7.80474 12.5409C7.92976 12.4215 8 12.2597 8 12.0909V11.4545H4.66667C4.13623 11.4545 3.62753 11.2534 3.25245 10.8954C2.87738 10.5374 2.66667 10.0518 2.66667 9.54545V4.45455ZM4.66667 10.1818C4.48986 10.1818 4.32029 10.1148 4.19526 9.99543C4.07024 9.87609 4 9.71423 4 9.54545V1.90909C4 1.74032 4.07024 1.57846 4.19526 1.45911C4.32029 1.33977 4.48986 1.27273 4.66667 1.27273H7.78992C7.96406 1.27277 8.13135 1.33785 8.25587 1.45405L10.4659 3.51714C10.5294 3.5764 10.58 3.64729 10.6144 3.72543C10.6489 3.80354 10.6666 3.88743 10.6667 3.97218V9.54545C10.6667 9.71423 10.5964 9.87609 10.4714 9.99543C10.3464 10.1148 10.1768 10.1818 10 10.1818H4.66667Z" fill="#0A8DFF"/>
</svg>
