<svg width="13" height="14" viewBox="0 0 13 14" fill="none" xmlns="http://www.w3.org/2000/svg">
<path d="M1.43759 0H7.90676C8.28803 0 8.65369 0.1475 8.92329 0.41005C9.19289 0.672601 9.34435 1.0287 9.34435 1.4V2.1C9.34435 2.28565 9.26862 2.4637 9.13382 2.59497C8.99902 2.72625 8.81619 2.8 8.62556 2.8C8.43492 2.8 8.25209 2.72625 8.11729 2.59497C7.98249 2.4637 7.90676 2.28565 7.90676 2.1V1.4H1.43759V12.6H7.90676V11.9C7.90676 11.7143 7.98249 11.5363 8.11729 11.405C8.25209 11.2737 8.43492 11.2 8.62556 11.2C8.81619 11.2 8.99902 11.2737 9.13382 11.405C9.26862 11.5363 9.34435 11.7143 9.34435 11.9V12.6C9.34435 12.9713 9.19289 13.3274 8.92329 13.5899C8.65369 13.8525 8.28803 14 7.90676 14H1.43759C1.05632 14 0.690662 13.8525 0.421061 13.5899C0.15146 13.3274 0 12.9713 0 12.6V1.4C0 1.0287 0.15146 0.672601 0.421061 0.41005C0.690662 0.1475 1.05632 0 1.43759 0Z" fill="#0A8DFF"/>
<path d="M9.197 10.0065C9.47733 10.2795 9.93017 10.2795 10.2105 10.0065L12.7895 7.4949C12.9243 7.36363 13 7.18561 13 7C13 6.81438 12.9243 6.63637 12.7895 6.5051L10.2105 3.9935C10.0739 3.87323 9.89501 3.80869 9.71089 3.81322C9.52678 3.81775 9.35148 3.89099 9.22125 4.01782C9.09102 4.14464 9.01581 4.31535 9.01116 4.49465C9.00651 4.67395 9.07279 4.84814 9.19628 4.9812L10.5447 6.3H4.31278C4.12214 6.3 3.93931 6.37375 3.80451 6.50502C3.66971 6.6363 3.59398 6.81435 3.59398 7C3.59398 7.18565 3.66971 7.3637 3.80451 7.49497C3.93931 7.62625 4.12214 7.7 4.31278 7.7H10.5447L9.19628 9.0188C9.06211 9.14998 8.98683 9.32763 8.98697 9.51279C8.9871 9.69795 9.06263 9.8755 9.197 10.0065Z" fill="#0A8DFF"/>
</svg>
