<svg width="18" height="17" viewBox="0 0 18 17" fill="none" xmlns="http://www.w3.org/2000/svg">
<path d="M9.12198 11.0289C9.74924 11.0289 10.3508 10.7902 10.7944 10.3654C11.2379 9.94058 11.4871 9.36441 11.4871 8.76363C11.4871 8.69729 11.4839 8.63156 11.478 8.56663L8.9163 11.0202C8.98409 11.0258 9.05251 11.0289 9.12198 11.0289ZM16.9505 1.75676L16.0483 0.893545C16.0167 0.863224 15.9737 0.846191 15.9289 0.846191C15.8841 0.846191 15.8412 0.863224 15.8095 0.893545L13.501 3.10519C12.2275 2.48184 10.796 2.17017 9.20645 2.17017C5.14777 2.17017 2.1196 4.19472 0.12194 8.24384C0.041644 8.40668 0 8.58454 0 8.76464C0 8.94473 0.041644 9.12259 0.12194 9.28544C0.920161 10.8958 1.88133 12.1865 3.00546 13.1576L0.771497 15.2964C0.73984 15.3268 0.722056 15.3679 0.722056 15.4108C0.722056 15.4537 0.73984 15.4948 0.771497 15.5252L1.67298 16.3886C1.70466 16.4189 1.74761 16.4359 1.7924 16.4359C1.83718 16.4359 1.88013 16.4189 1.91181 16.3886L16.9505 1.98571C16.9662 1.97069 16.9786 1.95284 16.9871 1.9332C16.9956 1.91356 17 1.8925 17 1.87124C17 1.84997 16.9956 1.82892 16.9871 1.80928C16.9786 1.78963 16.9662 1.77179 16.9505 1.75676ZM5.4054 8.76363C5.40534 8.14879 5.57156 7.54442 5.88785 7.00939C6.20415 6.47437 6.65974 6.02693 7.21025 5.71067C7.76076 5.39441 8.3874 5.22011 9.02915 5.20475C9.67089 5.1894 10.3058 5.3335 10.8722 5.62304L9.84545 6.60639C9.43139 6.47941 8.98881 6.46412 8.56627 6.56219C8.14373 6.66027 7.75756 6.86792 7.45013 7.16237C7.1427 7.45682 6.9259 7.82668 6.8235 8.23138C6.7211 8.63608 6.73707 9.05997 6.86965 9.45655L5.84294 10.4399C5.55482 9.92432 5.4045 9.34842 5.4054 8.76363Z" fill="#005BAA"/>
<path d="M17.8799 8.38932C17.148 6.89901 16.2769 5.68378 15.2665 4.74363L12.2696 7.64148C12.5222 8.27998 12.5782 8.97556 12.4308 9.64416C12.2834 10.3128 11.9389 10.9258 11.4389 11.4092C10.939 11.8926 10.3049 12.2257 9.61338 12.3682C8.92185 12.5107 8.20244 12.4566 7.54205 12.2123L5 14.6701C6.17933 15.1978 7.49104 15.4616 8.93512 15.4616C12.9314 15.4616 15.913 13.4493 17.8799 9.42462C17.959 9.26276 18 9.08598 18 8.90697C18 8.72796 17.959 8.55118 17.8799 8.38932Z" fill="#005BAA"/>
</svg>
