<svg width="20" height="15" viewBox="0 0 20 15" fill="none" xmlns="http://www.w3.org/2000/svg">
<path d="M7.33929 7.64101C7.33929 8.26248 7.60995 8.85849 8.09172 9.29793C8.57349 9.73738 9.22692 9.98425 9.90825 9.98425C10.5896 9.98425 11.243 9.73738 11.7248 9.29793C12.2065 8.85849 12.4772 8.26248 12.4772 7.64101C12.4772 7.01954 12.2065 6.42353 11.7248 5.98409C11.243 5.54464 10.5896 5.29776 9.90825 5.29776C9.22692 5.29776 8.57349 5.54464 8.09172 5.98409C7.60995 6.42353 7.33929 7.01954 7.33929 7.64101ZM19.8675 7.10123C17.6931 2.92314 14.4062 0.820496 9.99999 0.820496C5.59148 0.820496 2.30689 2.92314 0.132451 7.10332C0.0452335 7.27177 0 7.45576 0 7.64205C0 7.82835 0.0452335 8.01234 0.132451 8.18079C2.30689 12.3589 5.59378 14.4615 9.99999 14.4615C14.4085 14.4615 17.6931 12.3589 19.8675 8.1787C20.0442 7.83977 20.0442 7.44644 19.8675 7.10123ZM9.90825 11.3232C7.67876 11.3232 5.87132 9.67461 5.87132 7.64101C5.87132 5.60741 7.67876 3.95877 9.90825 3.95877C12.1377 3.95877 13.9452 5.60741 13.9452 7.64101C13.9452 9.67461 12.1377 11.3232 9.90825 11.3232Z" fill="#005BAA"/>
</svg>
