<svg width="18" height="18" viewBox="0 0 18 18" fill="none" xmlns="http://www.w3.org/2000/svg">
<path fill-rule="evenodd" clip-rule="evenodd" d="M2.11543 2.11543C3.46992 0.760943 5.307 0 7.22253 0C8.17101 0 9.1102 0.186816 9.98647 0.549783C10.8628 0.912749 11.659 1.44476 12.3296 2.11543C13.0003 2.7861 13.5323 3.58231 13.8953 4.45859C14.2582 5.33487 14.4451 6.27406 14.4451 7.22253C14.4451 8.17101 14.2582 9.1102 13.8953 9.98647C13.7013 10.4548 13.459 10.9003 13.1731 11.3159L18 16.1429L16.1429 18L11.3159 13.1731C10.9003 13.459 10.4548 13.7013 9.98647 13.8953C9.1102 14.2582 8.17101 14.4451 7.22253 14.4451C5.307 14.4451 3.46992 13.6841 2.11543 12.3296C0.760943 10.9751 0 9.13807 0 7.22253C0 5.307 0.760943 3.46992 2.11543 2.11543ZM7.22253 2.62637C6.00355 2.62637 4.8345 3.11061 3.97256 3.97256C3.11061 4.8345 2.62637 6.00355 2.62637 7.22253C2.62637 8.44151 3.11061 9.61056 3.97256 10.4725C4.8345 11.3345 6.00355 11.8187 7.22253 11.8187C7.82611 11.8187 8.42377 11.6998 8.9814 11.4688C9.53903 11.2378 10.0457 10.8993 10.4725 10.4725C10.8993 10.0457 11.2378 9.53903 11.4688 8.9814C11.6998 8.42377 11.8187 7.82611 11.8187 7.22253C11.8187 6.61895 11.6998 6.02129 11.4688 5.46366C11.2378 4.90603 10.8993 4.39935 10.4725 3.97256C10.0457 3.54577 9.53903 3.20722 8.9814 2.97624C8.42377 2.74526 7.82611 2.62637 7.22253 2.62637Z" fill="#005BAA"/>
</svg>
